<svg width="270" height="270" viewBox="0 0 270 270" fill="none" xmlns="http://www.w3.org/2000/svg">
<g clip-path="url(#clip0_1087_92)">
<path d="M180.002 225L165 240L150.002 255.002L135 270L120.002 255.002L105 240L90 225L105 210L120.002 225L135 240L150.002 225L165 210L180.002 225Z" fill="#2C1B47"/>
<path d="M270 135L255.002 149.998L240 165L225 180L210 195L195 210L180 195L165 180L149.998 165L165 149.998L180 165L195 180L240 135L225 120.002L210 105L195 90L180 105L165 120.002L149.998 135L135 149.998L120.002 165L105 180L90 195L75 210L60 195L45.0021 180.002L15.0021 150.002L0 135L15.0021 120.002L30 105L45.0021 90L60 75L75 60L90 75L105 90L120.002 105L105 120.002L90 105L75 90L60 105L45.0021 120.002L30 135L45.0021 150.002L60 165L75 180L90 165L105 149.998L120.002 135L135 120.002L149.998 105L165 90L180 75L195 60L210 75L225 90L240 105L270 135Z" fill="#2C1B47"/>
<path d="M180.002 45.0021L165 60L150.002 45.0021L149.998 45L135 30L120.002 45L105 60L90 45L105 30L120.002 14.9979L135 0L150.002 15.0021L165 30L180 45L180.002 45.0021Z" fill="#2C1B47"/>
</g>
<defs>
<clipPath id="clip0_1087_92">
<rect width="270" height="270" fill="white"/>
</clipPath>
</defs>
</svg>
