<svg width="101" height="101" viewBox="0 0 101 101" fill="none" xmlns="http://www.w3.org/2000/svg">
<path d="M96.7021 46.2021C94.8218 46.2021 65.5963 47.4378 53.8309 49.1301C63.3668 41.9848 84.883 22.2146 86.2261 20.8715C87.8915 19.2061 87.8915 16.4662 86.2261 14.8008C84.5606 13.1354 81.8207 13.1354 80.1553 14.8008C78.8122 16.1439 59.042 37.6601 51.8968 47.196C53.5891 35.3769 54.7979 6.17819 54.7979 4.29787C54.7979 1.93404 52.8638 0 50.5 0C48.1362 0 46.2021 1.93404 46.2021 4.29787C46.2021 6.17819 47.4378 35.4037 49.1301 47.1692C41.9848 37.6332 22.2146 16.117 20.8715 14.7739C19.2061 13.1085 16.4662 13.1085 14.8008 14.7739C13.1354 16.4394 13.1354 19.1793 14.8008 20.8447C16.1439 22.1878 37.6601 41.958 47.196 49.1032C35.3769 47.4109 6.17819 46.2021 4.29787 46.2021C1.93404 46.2021 0 48.1362 0 50.5C0 52.8638 1.93404 54.7979 4.29787 54.7979C6.17819 54.7979 35.4037 53.5622 47.1692 51.8699C37.6332 59.0152 16.117 78.7854 14.7739 80.1285C13.1085 81.7939 13.1085 84.5338 14.7739 86.1992C16.4394 87.8646 19.1793 87.8646 20.8447 86.1992C22.1878 84.8561 41.958 63.3399 49.1032 53.804C47.4109 65.6231 46.2021 94.8218 46.2021 96.7021C46.2021 99.066 48.1362 101 50.5 101C52.8638 101 54.7979 99.066 54.7979 96.7021C54.7979 94.8218 53.5622 65.5963 51.8699 53.8309C59.0152 63.3668 78.7854 84.883 80.1285 86.2261C81.7939 87.8915 84.5338 87.8915 86.1992 86.2261C87.8646 84.5606 87.8646 81.8207 86.1992 80.1553C84.8561 78.8122 63.3399 59.042 53.804 51.8968C65.6231 53.5891 94.8218 54.7979 96.7021 54.7979C99.066 54.7979 101 52.8638 101 50.5C101 48.1362 99.0928 46.2021 96.7021 46.2021Z" fill="#FFFFFE"/>
</svg>
